<svg xmlns="http://www.w3.org/2000/svg" xmlns:xlink="http://www.w3.org/1999/xlink" viewBox="0 0 500 500" width="500" height="500" preserveAspectRatio="xMidYMid meet" style="width: 100%; height: 100%; transform: translate3d(0px, 0px, 0px); content-visibility: visible;"><defs><clipPath id="__lottie_element_2"><rect width="500" height="500" x="0" y="0"/></clipPath><clipPath id="__lottie_element_4"><path d="M0,0 L500,0 L500,500 L0,500z"/></clipPath><clipPath id="__lottie_element_74"><path d="M0,0 L500,0 L500,500 L0,500z"/></clipPath><clipPath id="__lottie_element_78"><path d="M0,0 L500,0 L500,500 L0,500z"/></clipPath><g id="__lottie_element_81"><g class="primary design" transform="matrix(1,0,0,1,644,250)" opacity="1" style="display: none;"><g opacity="1" transform="matrix(1,0,0,1,0,0)"><path class="primary" fill="rgb(18,19,49)" fill-opacity="1" d=" M250,-250 C250,-250 250,250 250,250 C250,250 -250,250 -250,250 C-250,250 -250,-250 -250,-250 C-250,-250 250,-250 250,-250z"/><path stroke-linecap="butt" stroke-linejoin="miter" fill-opacity="0" stroke-miterlimit="4" class="primary" stroke="rgb(18,19,49)" stroke-opacity="1" stroke-width="0" d=" M250,-250 C250,-250 250,250 250,250 C250,250 -250,250 -250,250 C-250,250 -250,-250 -250,-250 C-250,-250 250,-250 250,-250z"/></g></g></g><filter id="__lottie_element_84" filterUnits="objectBoundingBox" x="0%" y="0%" width="100%" height="100%"><feComponentTransfer in="SourceGraphic"><feFuncA type="table" tableValues="1.0 0.0"/></feComponentTransfer></filter><mask id="__lottie_element_81_2" mask-type="alpha"><g filter="url(#__lottie_element_84)"><rect width="500" height="500" x="0" y="0" fill="#ffffff" opacity="0"/><use xmlns:ns1="http://www.w3.org/1999/xlink" ns1:href="#__lottie_element_81"/></g></mask><clipPath id="__lottie_element_134"><path d="M0,0 L500,0 L500,500 L0,500z"/></clipPath><clipPath id="__lottie_element_138"><path d="M0,0 L500,0 L500,500 L0,500z"/></clipPath><g id="__lottie_element_141"><g class="primary design" transform="matrix(1,0,0,1,644,250)" opacity="1" style="display: none;"><g opacity="1" transform="matrix(1,0,0,1,0,0)"><path class="primary" fill="rgb(18,19,49)" fill-opacity="1" d=" M250,-250 C250,-250 250,250 250,250 C250,250 -250,250 -250,250 C-250,250 -250,-250 -250,-250 C-250,-250 250,-250 250,-250z"/><path stroke-linecap="butt" stroke-linejoin="miter" fill-opacity="0" stroke-miterlimit="4" class="primary" stroke="rgb(18,19,49)" stroke-opacity="1" stroke-width="0" d=" M250,-250 C250,-250 250,250 250,250 C250,250 -250,250 -250,250 C-250,250 -250,-250 -250,-250 C-250,-250 250,-250 250,-250z"/></g></g></g><filter id="__lottie_element_144" filterUnits="objectBoundingBox" x="0%" y="0%" width="100%" height="100%"><feComponentTransfer in="SourceGraphic"><feFuncA type="table" tableValues="1.0 0.0"/></feComponentTransfer></filter><mask id="__lottie_element_141_2" mask-type="alpha"><g filter="url(#__lottie_element_144)"><rect width="500" height="500" x="0" y="0" fill="#ffffff" opacity="0"/><use xmlns:ns2="http://www.w3.org/1999/xlink" ns2:href="#__lottie_element_141"/></g></mask><clipPath id="__lottie_element_465"><path d="M0,0 L500,0 L500,500 L0,500z"/></clipPath><clipPath id="__lottie_element_655"><path d="M0,0 L500,0 L500,500 L0,500z"/></clipPath><clipPath id="__lottie_element_686"><path d="M0,0 L500,0 L500,500 L0,500z"/></clipPath><clipPath id="__lottie_element_690"><path d="M0,0 L500,0 L500,500 L0,500z"/></clipPath><g id="__lottie_element_693"><g class="primary design" transform="matrix(1,0,0,1,644,250)" opacity="1" style="display: block;"><g opacity="1" transform="matrix(1,0,0,1,0,0)"><path class="primary" fill="rgb(18,19,49)" fill-opacity="1" d=" M250,-250 C250,-250 250,250 250,250 C250,250 -250,250 -250,250 C-250,250 -250,-250 -250,-250 C-250,-250 250,-250 250,-250z"/><path stroke-linecap="butt" stroke-linejoin="miter" fill-opacity="0" stroke-miterlimit="4" class="primary" stroke="rgb(18,19,49)" stroke-opacity="1" stroke-width="0" d=" M250,-250 C250,-250 250,250 250,250 C250,250 -250,250 -250,250 C-250,250 -250,-250 -250,-250 C-250,-250 250,-250 250,-250z"/></g></g></g><filter id="__lottie_element_696" filterUnits="objectBoundingBox" x="0%" y="0%" width="100%" height="100%"><feComponentTransfer in="SourceGraphic"><feFuncA type="table" tableValues="1.0 0.0"/></feComponentTransfer></filter><mask id="__lottie_element_693_2" mask-type="alpha"><g filter="url(#__lottie_element_696)"><rect width="500" height="500" x="0" y="0" fill="#ffffff" opacity="0"/><use xmlns:ns3="http://www.w3.org/1999/xlink" ns3:href="#__lottie_element_693"/></g></mask></defs><g clip-path="url(#__lottie_element_2)"><g clip-path="url(#__lottie_element_4)" transform="matrix(1,0,0,1,0,0)" opacity="1" style="display: block;"><g class="primary design" transform="matrix(1,0,0,1,0,0)" opacity="1" style="display: none;"><g opacity="1" transform="matrix(1,0,0,1,291.7130126953125,250)"><path class="primary" fill="rgb(18,19,49)" fill-opacity="1" d=" M84.375,208.33299255371094 C84.375,208.33299255371094 41.66699981689453,208.33299255371094 41.66699981689453,208.33299255371094 C30.208999633789062,208.33299255371094 20.83300018310547,198.95799255371094 20.83300018310547,187.5 C20.83300018310547,176.04200744628906 30.208999633789062,166.66700744628906 41.66699981689453,166.66700744628906 C41.66699981689453,166.66700744628906 84.375,166.66700744628906 84.375,166.66700744628906 C84.375,166.66700744628906 83.33300018310547,-167.29200744628906 83.33300018310547,-167.29200744628906 C83.33300018310547,-167.29200744628906 -84.375,-166.66700744628906 -84.375,-166.66700744628906 C-84.375,-166.66700744628906 -83.33300018310547,-125 -83.33300018310547,-125 C-83.33300018310547,-113.54199981689453 -92.70899963378906,-104.16699981689453 -104.16699981689453,-104.16699981689453 C-115.625,-104.16699981689453 -125,-113.54199981689453 -125,-125 C-125,-125 -125,-167.29200744628906 -125,-167.29200744628906 C-125,-189.79200744628906 -106.66699981689453,-208.33299255371094 -84.375,-208.33299255371094 C-84.375,-208.33299255371094 84.375,-208.33299255371094 84.375,-208.33299255371094 C106.66699981689453,-208.33299255371094 125,-189.79200744628906 125,-167.29200744628906 C125,-167.29200744628906 125,167.08299255371094 125,167.08299255371094 C125,190 106.66699981689453,208.33299255371094 84.375,208.33299255371094z"/></g></g><g clip-path="url(#__lottie_element_134)" transform="matrix(1,0,0,1,0,0)" opacity="1" style="display: block;"><g class="primary design" transform="matrix(0.9999998211860657,-0.000580191204790026,0.000580191204790026,0.9999998211860657,-0.129791259765625,0.1494140625)" opacity="1" style="display: block;"><g opacity="1" transform="matrix(1,0,0,1,299.4830017089844,148.27499389648438)"><g opacity="1" transform="matrix(1,0,0,1,0,0)"><path class="primary" fill="rgb(18,19,49)" fill-opacity="1" d=" M34.84299850463867,3.819000005722046 C34.84299850463867,3.819000005722046 19.827999114990234,29.719999313354492 19.827999114990234,29.719999313354492 C17.011999130249023,34.5989990234375 11.944000244140625,37.22700119018555 6.689000129699707,37.22700119018555 C4.249000072479248,37.22700119018555 1.621000051498413,36.665000915527344 -0.8190000057220459,35.16299819946289 C-0.8190000057220459,35.16299819946289 -13.770000457763672,27.655000686645508 -13.770000457763672,27.655000686645508 C-28.22100067138672,19.39699935913086 -33.10100173950195,1.003000020980835 -24.843000411987305,-13.26200008392334 C-24.843000411987305,-13.26200008392334 -17.336000442504883,-26.211999893188477 -17.336000442504883,-26.211999893188477 C-11.704000473022461,-35.97100067138672 -1.5700000524520874,-41.22700119018555 8.753000259399414,-41.22700119018555 C13.821000099182129,-41.22700119018555 19.076000213623047,-40.10100173950195 23.76799964904785,-37.28499984741211 C38.220001220703125,-29.027000427246094 43.10100173950195,-10.633000373840332 34.84299850463867,3.819000005722046z"/></g></g></g><g class="primary design" transform="matrix(-0.10513840615749359,-0.9944576025009155,0.9944576025009155,-0.10513840615749359,342.78265380859375,256.354736328125)" opacity="1" style="display: block;"><g opacity="1" transform="matrix(1,0,0,1,0,0)"><path stroke-linecap="round" stroke-linejoin="round" fill-opacity="0" class="primary" stroke="rgb(18,19,49)" stroke-opacity="1" stroke-width="42" d=" M20.259794235229492,-51.226165771484375 C20.259794235229492,-51.226165771484375 -50.21128463745117,-57.661197662353516 -50.21128463745117,-57.661197662353516 C-50.21128463745117,-57.661197662353516 -54.71293640136719,-15.644001960754395 -54.71293640136719,-15.644001960754395"/></g></g><g class="primary design" transform="matrix(-0.017529653385281563,0.999846339225769,-0.999846339225769,-0.017529653385281563,224.58248901367188,146.063232421875)" opacity="1" style="display: block;"><g opacity="1" transform="matrix(1,0,0,1,0,0)"><path stroke-linecap="round" stroke-linejoin="round" fill-opacity="0" class="primary" stroke="rgb(18,19,49)" stroke-opacity="1" stroke-width="42" d=" M105.95513153076172,97.8914794921875 C105.95513153076172,97.8914794921875 62.77512741088867,56.18669891357422 62.77512741088867,56.18669891357422 C62.77512741088867,56.18669891357422 61.76045608520508,-17.930906295776367 61.76045608520508,-17.930906295776367"/></g></g><g class="primary design" style="display: none;"><g><path class="primary"/></g></g><g class="primary design" transform="matrix(1,-0.00014247093349695206,0.00014247093349695206,1,174.01559448242188,327.721435546875)" opacity="1" style="display: block;"><g opacity="1" transform="matrix(1,0,0,1,0,0)"><path class="primary" fill="rgb(18,19,49)" fill-opacity="1" d=" M112.96700286865234,-98.552001953125 C112.96700286865234,-98.552001953125 67.66100311279297,-20.405000686645508 67.66100311279297,-20.405000686645508 C67.66100311279297,-20.405000686645508 62.23500061035156,-11.04699993133545 62.23500061035156,-11.04699993133545 C62.23500061035156,-11.04699993133545 45.98500061035156,2.0329999923706055 19.110000610351562,-10.84000015258789 C-6.455999851226807,-23.086000442504883 -4.73199987411499,-41.9370002746582 -4.73199987411499,-41.9370002746582 C-4.73199987411499,-41.9370002746582 0.3319999873638153,-50.500999450683594 0.3319999873638153,-50.500999450683594 C0.3319999873638153,-50.500999450683594 47.698001861572266,-130.61399841308594 47.698001861572266,-130.61399841308594"/></g></g><g class="primary design" transform="matrix(1,-0.00014247093349695206,0.00014247093349695206,1,229.1580047607422,260.41357421875)" opacity="1" style="display: block;"><g opacity="1" transform="matrix(1,0,0,1,0,0)"><path stroke-linecap="round" stroke-linejoin="round" fill-opacity="0" class="primary" stroke="rgb(18,19,49)" stroke-opacity="1" stroke-width="31.3" d=" M41.58300018310547,-23.91699981689453 C41.58300018310547,-23.91699981689453 60.33300018310547,-18.417999267578125 65.79499816894531,-14.623000144958496 C65.79499816894531,-37.6349983215332 41.83300018310547,-60.917999267578125 15.628000259399414,-57.290000915527344 C15.628000259399414,-57.290000915527344 6.083000183105469,-54.66699981689453 6.083000183105469,-54.66699981689453"/></g></g><g class="primary design" transform="matrix(0.4061056673526764,-0.9138261079788208,0.9138261079788208,0.4061056673526764,194.46665954589844,230.88812255859375)" opacity="1" style="display: block;"><g opacity="1" transform="matrix(1,0,0,1,0,0)"><path stroke-linecap="round" stroke-linejoin="round" fill-opacity="0" class="primary" stroke="rgb(18,19,49)" stroke-opacity="1" stroke-width="42" d=" M-61.45164489746094,50.3179817199707 C-61.45164489746094,50.3179817199707 -108.7596664428711,109.17822265625 -108.7596664428711,109.17822265625 C-108.7596664428711,109.17822265625 -165.36209106445312,134.98184204101562 -165.36209106445312,134.98184204101562"/></g></g><g class="primary design" transform="matrix(0.15643446147441864,0.9876883625984192,-0.9876883625984192,0.15643446147441864,246.175048828125,328.8869323730469)" opacity="1" style="display: block;"><g opacity="1" transform="matrix(1,0,0,1,0,0)"><path stroke-linecap="round" stroke-linejoin="round" fill-opacity="0" class="primary" stroke="rgb(18,19,49)" stroke-opacity="1" stroke-width="42" d=" M-43.623069763183594,52.79224395751953 C-43.623069763183594,52.79224395751953 9.007561683654785,102.6236801147461 9.007561683654785,102.6236801147461 C9.007561683654785,102.6236801147461 19.737211227416992,168.15377807617188 19.737211227416992,168.15377807617188"/></g></g></g><g mask="url(#__lottie_element_141_2)" style="display: none;"><g clip-path="url(#__lottie_element_138)" transform="matrix(1,0,0,1,366,0)" opacity="1"><g class="primary design" transform="matrix(0.9981533288955688,-0.06074519082903862,0.06074519082903862,0.9981533288955688,-11.626327514648438,16.75775146484375)" opacity="1" style="display: block;"><g opacity="1" transform="matrix(1,0,0,1,299.4830017089844,148.27499389648438)"><g opacity="1" transform="matrix(1,0,0,1,0,0)"><path class="primary" fill="rgb(18,19,49)" fill-opacity="1" d=" M35.09299850463867,3.569000005722046 C35.09299850463867,3.569000005722046 20.077999114990234,29.469999313354492 20.077999114990234,29.469999313354492 C17.261999130249023,34.3489990234375 12.194000244140625,36.97700119018555 6.939000129699707,36.97700119018555 C4.499000072479248,36.97700119018555 1.871000051498413,36.415000915527344 -0.5690000057220459,34.91299819946289 C-0.5690000057220459,34.91299819946289 -13.520000457763672,27.405000686645508 -13.520000457763672,27.405000686645508 C-27.97100067138672,19.14699935913086 -32.85100173950195,0.753000020980835 -24.593000411987305,-13.51200008392334 C-24.593000411987305,-13.51200008392334 -17.086000442504883,-26.461999893188477 -17.086000442504883,-26.461999893188477 C-11.454000473022461,-36.22100067138672 -1.3200000524520874,-41.47700119018555 9.003000259399414,-41.47700119018555 C14.071000099182129,-41.47700119018555 19.326000213623047,-40.35100173950195 24.01799964904785,-37.53499984741211 C38.470001220703125,-29.277000427246094 43.35100173950195,-10.883000373840332 35.09299850463867,3.569000005722046z"/></g></g></g><g class="primary design" transform="matrix(-0.1301855891942978,-0.9914897084236145,0.9914897084236145,-0.1301855891942978,342.716552734375,254.57760620117188)" opacity="1" style="display: block;"><g opacity="1" transform="matrix(1,0,0,1,0,0)"><path stroke-linecap="round" stroke-linejoin="round" fill-opacity="0" class="primary" stroke="rgb(18,19,49)" stroke-opacity="1" stroke-width="42" d=" M19.784748077392578,-51.9765625 C19.784748077392578,-51.9765625 -51.469329833984375,-58.18599319458008 -51.469329833984375,-58.18599319458008 C-51.469329833984375,-58.18599319458008 -56.17490768432617,-14.28964900970459 -56.17490768432617,-14.28964900970459"/></g></g><g class="primary design" transform="matrix(-0.02381274476647377,0.9997164607048035,-0.9997164607048035,-0.02381274476647377,225.08203125,146.35211181640625)" opacity="1" style="display: block;"><g opacity="1" transform="matrix(1,0,0,1,0,0)"><path stroke-linecap="round" stroke-linejoin="round" fill-opacity="0" class="primary" stroke="rgb(18,19,49)" stroke-opacity="1" stroke-width="42" d=" M106.56172180175781,98.68833923339844 C106.56172180175781,98.68833923339844 62.604957580566406,55.67387771606445 62.604957580566406,55.67387771606445 C62.604957580566406,55.67387771606445 62.18981170654297,-19.059589385986328 62.18981170654297,-19.059589385986328"/></g></g><g class="primary design" style="display: none;"><g><path class="primary"/></g></g><g class="primary design" transform="matrix(0.9999924898147583,-0.0038831387646496296,0.0038831387646496296,0.9999924898147583,174.0314178466797,327.8371276855469)" opacity="1" style="display: block;"><g opacity="1" transform="matrix(1,0,0,1,0,0)"><path class="primary" fill="rgb(18,19,49)" fill-opacity="1" d=" M112.96700286865234,-98.552001953125 C112.96700286865234,-98.552001953125 67.66100311279297,-20.405000686645508 67.66100311279297,-20.405000686645508 C67.66100311279297,-20.405000686645508 62.23500061035156,-11.04699993133545 62.23500061035156,-11.04699993133545 C62.23500061035156,-11.04699993133545 45.98500061035156,2.0329999923706055 19.110000610351562,-10.84000015258789 C-6.455999851226807,-23.086000442504883 -4.73199987411499,-41.9370002746582 -4.73199987411499,-41.9370002746582 C-4.73199987411499,-41.9370002746582 0.3319999873638153,-50.500999450683594 0.3319999873638153,-50.500999450683594 C0.3319999873638153,-50.500999450683594 47.698001861572266,-130.61399841308594 47.698001861572266,-130.61399841308594"/></g></g><g class="primary design" transform="matrix(0.9999924898147583,-0.0038831387646496296,0.0038831387646496296,0.9999924898147583,228.9216766357422,260.3234558105469)" opacity="1" style="display: block;"><g opacity="1" transform="matrix(1,0,0,1,0,0)"><path stroke-linecap="round" stroke-linejoin="round" fill-opacity="0" class="primary" stroke="rgb(18,19,49)" stroke-opacity="1" stroke-width="42" d=" M41.58300018310547,-23.91699981689453 C41.58300018310547,-23.91699981689453 58.93240737915039,-20.30229949951172 64.3944091796875,-16.507299423217773 C64.3944091796875,-39.5192985534668 41.928001403808594,-57.290000915527344 18.916000366210938,-57.290000915527344 C18.916000366210938,-57.290000915527344 4.849999904632568,-56.51649856567383 4.849999904632568,-56.51649856567383"/></g></g><g class="primary design" transform="matrix(0.326689749956131,-0.9451316595077515,0.9451316595077515,0.326689749956131,190.98472595214844,231.76754760742188)" opacity="1" style="display: block;"><g opacity="1" transform="matrix(1,0,0,1,0,0)"><path stroke-linecap="round" stroke-linejoin="round" fill-opacity="0" class="primary" stroke="rgb(18,19,49)" stroke-opacity="1" stroke-width="42" d=" M-61.94624710083008,47.043975830078125 C-61.94624710083008,47.043975830078125 -107.1004638671875,107.43746185302734 -107.1004638671875,107.43746185302734 C-107.1004638671875,107.43746185302734 -164.4807586669922,140.64796447753906 -164.4807586669922,140.64796447753906"/></g></g><g class="primary design" transform="matrix(0.15643446147441864,0.9876883625984192,-0.9876883625984192,0.15643446147441864,246.175048828125,328.8869323730469)" opacity="1" style="display: block;"><g opacity="1" transform="matrix(1,0,0,1,0,0)"><path stroke-linecap="round" stroke-linejoin="round" fill-opacity="0" class="primary" stroke="rgb(18,19,49)" stroke-opacity="1" stroke-width="42" d=" M-45.94384002685547,50.464195251464844 C-45.94384002685547,50.464195251464844 7.146812438964844,103.00584411621094 7.146812438964844,103.00584411621094 C7.146812438964844,103.00584411621094 9.93187141418457,170.7108917236328 9.93187141418457,170.7108917236328"/></g></g></g></g><g clip-path="url(#__lottie_element_74)" transform="matrix(1,0,0,1,-7.3408050537109375,0)" opacity="1" style="display: none;"><g class="primary design" transform="matrix(0.99984210729599,-0.017768722027540207,0.017768722027540207,0.99984210729599,-3.41473388671875,4.876251220703125)" opacity="1" style="display: block;"><g opacity="1" transform="matrix(1,0,0,1,299.4830017089844,148.27499389648438)"><g opacity="1" transform="matrix(1,0,0,1,0,0)"><path class="primary" fill="rgb(18,19,49)" fill-opacity="1" d=" M35.09299850463867,3.569000005722046 C35.09299850463867,3.569000005722046 20.077999114990234,29.469999313354492 20.077999114990234,29.469999313354492 C17.261999130249023,34.3489990234375 12.194000244140625,36.97700119018555 6.939000129699707,36.97700119018555 C4.499000072479248,36.97700119018555 1.871000051498413,36.415000915527344 -0.5690000057220459,34.91299819946289 C-0.5690000057220459,34.91299819946289 -13.520000457763672,27.405000686645508 -13.520000457763672,27.405000686645508 C-27.97100067138672,19.14699935913086 -32.85100173950195,0.753000020980835 -24.593000411987305,-13.51200008392334 C-24.593000411987305,-13.51200008392334 -17.086000442504883,-26.461999893188477 -17.086000442504883,-26.461999893188477 C-11.454000473022461,-36.22100067138672 -1.3200000524520874,-41.47700119018555 9.003000259399414,-41.47700119018555 C14.071000099182129,-41.47700119018555 19.326000213623047,-40.35100173950195 24.01799964904785,-37.53499984741211 C38.470001220703125,-29.277000427246094 43.35100173950195,-10.883000373840332 35.09299850463867,3.569000005722046z"/></g></g></g><g class="primary design" transform="matrix(-0.10760798305273056,-0.9941933751106262,0.9941933751106262,-0.10760798305273056,342.7825927734375,256.18487548828125)" opacity="1" style="display: block;"><g opacity="1" transform="matrix(1,0,0,1,0,0)"><path stroke-linecap="round" stroke-linejoin="round" fill-opacity="0" class="primary" stroke="rgb(18,19,49)" stroke-opacity="1" stroke-width="42" d=" M19.220956802368164,-51.21516418457031 C19.220956802368164,-51.21516418457031 -50.79721450805664,-57.48765563964844 -50.79721450805664,-57.48765563964844 C-50.79721450805664,-57.48765563964844 -55.359657287597656,-14.910256385803223 -55.359657287597656,-14.910256385803223"/></g></g><g class="primary design" transform="matrix(-0.018239321187138557,0.9998336434364319,-0.9998336434364319,-0.018239321187138557,224.64585876464844,146.09397888183594)" opacity="1" style="display: block;"><g opacity="1" transform="matrix(1,0,0,1,0,0)"><path stroke-linecap="round" stroke-linejoin="round" fill-opacity="0" class="primary" stroke="rgb(18,19,49)" stroke-opacity="1" stroke-width="42" d=" M105.60494995117188,97.57862854003906 C105.60494995117188,97.57862854003906 62.736114501953125,55.26529312133789 62.736114501953125,55.26529312133789 C62.736114501953125,55.26529312133789 62.24616622924805,-18.083343505859375 62.24616622924805,-18.083343505859375"/></g></g><g class="primary design" style="display: none;"><g><path class="primary"/></g></g><g class="primary design" transform="matrix(0.9999998807907104,-0.00044878898188471794,0.00044878898188471794,0.9999998807907104,174.01687622070312,327.7309265136719)" opacity="1" style="display: block;"><g opacity="1" transform="matrix(1,0,0,1,0,0)"><path class="primary" fill="rgb(18,19,49)" fill-opacity="1" d=" M112.96700286865234,-98.552001953125 C112.96700286865234,-98.552001953125 67.66100311279297,-20.405000686645508 67.66100311279297,-20.405000686645508 C67.66100311279297,-20.405000686645508 62.23500061035156,-11.04699993133545 62.23500061035156,-11.04699993133545 C62.23500061035156,-11.04699993133545 45.98500061035156,2.0329999923706055 19.110000610351562,-10.84000015258789 C-6.455999851226807,-23.086000442504883 -4.73199987411499,-41.9370002746582 -4.73199987411499,-41.9370002746582 C-4.73199987411499,-41.9370002746582 0.3319999873638153,-50.500999450683594 0.3319999873638153,-50.500999450683594 C0.3319999873638153,-50.500999450683594 47.698001861572266,-130.61399841308594 47.698001861572266,-130.61399841308594"/></g></g><g class="primary design" transform="matrix(0.9999998807907104,-0.00044878898188471794,0.00044878898188471794,0.9999998807907104,229.138671875,260.40618896484375)" opacity="1" style="display: block;"><g opacity="1" transform="matrix(1,0,0,1,0,0)"><path stroke-linecap="round" stroke-linejoin="round" fill-opacity="0" class="primary" stroke="rgb(18,19,49)" stroke-opacity="1" stroke-width="42" d=" M41.58300018310547,-23.91699981689453 C41.58300018310547,-23.91699981689453 59.70033264160156,-20.379520416259766 65.1623306274414,-16.58452033996582 C65.1623306274414,-39.596519470214844 42.4031982421875,-57.290000915527344 19.391199111938477,-57.290000915527344 C19.391199111938477,-57.290000915527344 4.671800136566162,-56.78379821777344 4.671800136566162,-56.78379821777344"/></g></g><g class="primary design" transform="matrix(0.3827143907546997,-0.9238666892051697,0.9238666892051697,0.3827143907546997,193.41615295410156,231.09228515625)" opacity="1" style="display: block;"><g opacity="1" transform="matrix(1,0,0,1,0,0)"><path stroke-linecap="round" stroke-linejoin="round" fill-opacity="0" class="primary" stroke="rgb(18,19,49)" stroke-opacity="1" stroke-width="42" d=" M-62.04146194458008,50.49602127075195 C-62.04146194458008,50.49602127075195 -108.47872161865234,108.1793441772461 -108.47872161865234,108.1793441772461 C-108.47872161865234,108.1793441772461 -165.6325225830078,136.33399963378906 -165.6325225830078,136.33399963378906"/></g></g><g class="primary design" transform="matrix(0.15643446147441864,0.9876883625984192,-0.9876883625984192,0.15643446147441864,246.175048828125,328.8869323730469)" opacity="1" style="display: block;"><g opacity="1" transform="matrix(1,0,0,1,0,0)"><path stroke-linecap="round" stroke-linejoin="round" fill-opacity="0" class="primary" stroke="rgb(18,19,49)" stroke-opacity="1" stroke-width="42" d=" M-47.04472732543945,49.18364715576172 C-47.04472732543945,49.18364715576172 8.161385536193848,102.33685302734375 8.161385536193848,102.33685302734375 C8.161385536193848,102.33685302734375 16.86874008178711,168.5699920654297 16.86874008178711,168.5699920654297"/></g></g></g><g mask="url(#__lottie_element_81_2)" style="display: none;"><g clip-path="url(#__lottie_element_78)" transform="matrix(1,0,0,1,358.660888671875,0)" opacity="1"><g class="primary design" transform="matrix(1,0,0,1,0,0.000030517578125)" opacity="1" style="display: block;"><g opacity="1" transform="matrix(1,0,0,1,299.4830017089844,148.27499389648438)"><g opacity="1" transform="matrix(1,0,0,1,0,0)"><path class="primary" fill="rgb(18,19,49)" fill-opacity="1" d=" M35.09299850463867,3.569000005722046 C35.09299850463867,3.569000005722046 20.077999114990234,29.469999313354492 20.077999114990234,29.469999313354492 C17.261999130249023,34.3489990234375 12.194000244140625,36.97700119018555 6.939000129699707,36.97700119018555 C4.499000072479248,36.97700119018555 1.871000051498413,36.415000915527344 -0.5690000057220459,34.91299819946289 C-0.5690000057220459,34.91299819946289 -13.520000457763672,27.405000686645508 -13.520000457763672,27.405000686645508 C-27.97100067138672,19.14699935913086 -32.85100173950195,0.753000020980835 -24.593000411987305,-13.51200008392334 C-24.593000411987305,-13.51200008392334 -17.086000442504883,-26.461999893188477 -17.086000442504883,-26.461999893188477 C-11.454000473022461,-36.22100067138672 -1.3200000524520874,-41.47700119018555 9.003000259399414,-41.47700119018555 C14.071000099182129,-41.47700119018555 19.326000213623047,-40.35100173950195 24.01799964904785,-37.53499984741211 C38.470001220703125,-29.277000427246094 43.35100173950195,-10.883000373840332 35.09299850463867,3.569000005722046z"/></g></g></g><g class="primary design" transform="matrix(-0.10452846437692642,-0.9945219159126282,0.9945219159126282,-0.10452846437692642,342.7877197265625,256.4019775390625)" opacity="1" style="display: block;"><g opacity="1" transform="matrix(1,0,0,1,0,0)"><path stroke-linecap="round" stroke-linejoin="round" fill-opacity="0" class="primary" stroke="rgb(18,19,49)" stroke-opacity="1" stroke-width="42" d=" M18.975000381469727,-50.882999420166016 C18.975000381469727,-50.882999420166016 -50.50400161743164,-57.18299865722656 -50.50400161743164,-57.18299865722656 C-50.50400161743164,-57.18299865722656 -55.00400161743164,-15.180999755859375 -55.00400161743164,-15.180999755859375"/></g></g><g class="primary design" transform="matrix(-0.017452405765652657,0.9998477101325989,-0.9998477101325989,-0.017452405765652657,224.5823211669922,146.05807495117188)" opacity="1" style="display: block;"><g opacity="1" transform="matrix(1,0,0,1,0,0)"><path stroke-linecap="round" stroke-linejoin="round" fill-opacity="0" class="primary" stroke="rgb(18,19,49)" stroke-opacity="1" stroke-width="42" d=" M105.43800354003906,97.38500213623047 C105.43800354003906,97.38500213623047 62.75899887084961,55.194000244140625 62.75899887084961,55.194000244140625 C62.75899887084961,55.194000244140625 62.25600051879883,-17.913000106811523 62.25600051879883,-17.913000106811523"/></g></g><g class="primary design" style="display: none;"><g><path class="primary"/></g></g><g class="primary design" transform="matrix(1,0,0,1,174.01499938964844,327.7170104980469)" opacity="1" style="display: block;"><g opacity="1" transform="matrix(1,0,0,1,0,0)"><path class="primary" fill="rgb(18,19,49)" fill-opacity="1" d=" M112.96700286865234,-98.552001953125 C112.96700286865234,-98.552001953125 67.66100311279297,-20.405000686645508 67.66100311279297,-20.405000686645508 C67.66100311279297,-20.405000686645508 62.23500061035156,-11.04699993133545 62.23500061035156,-11.04699993133545 C62.23500061035156,-11.04699993133545 45.98500061035156,2.0329999923706055 19.110000610351562,-10.84000015258789 C-6.455999851226807,-23.086000442504883 -4.73199987411499,-41.9370002746582 -4.73199987411499,-41.9370002746582 C-4.73199987411499,-41.9370002746582 0.3319999873638153,-50.500999450683594 0.3319999873638153,-50.500999450683594 C0.3319999873638153,-50.500999450683594 47.698001861572266,-130.61399841308594 47.698001861572266,-130.61399841308594"/></g></g><g class="primary design" transform="matrix(1,0,0,1,229.1669921875,260.4169921875)" opacity="1" style="display: block;"><g opacity="1" transform="matrix(1,0,0,1,0,0)"><path stroke-linecap="round" stroke-linejoin="round" fill-opacity="0" class="primary" stroke="rgb(18,19,49)" stroke-opacity="1" stroke-width="42" d=" M41.58300018310547,-23.91699981689453 C41.58300018310547,-23.91699981689453 60.08300018310547,-20.417999267578125 65.54499816894531,-16.62299919128418 C65.54499816894531,-39.6349983215332 42.63999938964844,-57.290000915527344 19.628000259399414,-57.290000915527344 C19.628000259399414,-57.290000915527344 4.583000183105469,-56.91699981689453 4.583000183105469,-56.91699981689453"/></g></g><g class="primary design" transform="matrix(0.4067366421222687,-0.9135454297065735,0.9135454297065735,0.4067366421222687,194.4952850341797,230.88328552246094)" opacity="1" style="display: block;"><g opacity="1" transform="matrix(1,0,0,1,0,0)"><path stroke-linecap="round" stroke-linejoin="round" fill-opacity="0" class="primary" stroke="rgb(18,19,49)" stroke-opacity="1" stroke-width="42" d=" M-62.08300018310547,52.00199890136719 C-62.08300018310547,52.00199890136719 -109.08000183105469,108.50299835205078 -109.08000183105469,108.50299835205078 C-109.08000183105469,108.50299835205078 -166.13499450683594,134.45199584960938 -166.13499450683594,134.45199584960938"/></g></g><g class="primary design" transform="matrix(0.15643446147441864,0.9876883625984192,-0.9876883625984192,0.15643446147441864,246.175048828125,328.8869323730469)" opacity="1" style="display: block;"><g opacity="1" transform="matrix(1,0,0,1,0,0)"><path stroke-linecap="round" stroke-linejoin="round" fill-opacity="0" class="primary" stroke="rgb(18,19,49)" stroke-opacity="1" stroke-width="42" d=" M-47.525001525878906,48.625 C-47.525001525878906,48.625 8.604000091552734,102.04499816894531 8.604000091552734,102.04499816894531 C8.604000091552734,102.04499816894531 19.895000457763672,167.63600158691406 19.895000457763672,167.63600158691406"/></g></g></g></g><g class="primary design" transform="matrix(1,0,0,1,0,0)" opacity="1" style="display: none;"><g opacity="1" transform="matrix(1,0,0,1,291.7130126953125,250)"><path class="primary" fill="rgb(18,19,49)" fill-opacity="1" d=" M84.375,208.33299255371094 C84.375,208.33299255371094 41.66699981689453,208.33299255371094 41.66699981689453,208.33299255371094 C30.208999633789062,208.33299255371094 20.83300018310547,198.95799255371094 20.83300018310547,187.5 C20.83300018310547,176.04200744628906 30.208999633789062,166.66700744628906 41.66699981689453,166.66700744628906 C41.66699981689453,166.66700744628906 84.375,166.66700744628906 84.375,166.66700744628906 C84.375,166.66700744628906 83.33300018310547,-167.29200744628906 83.33300018310547,-167.29200744628906 C83.33300018310547,-167.29200744628906 -84.375,-166.66700744628906 -84.375,-166.66700744628906 C-84.375,-166.66700744628906 -83.33300018310547,-125 -83.33300018310547,-125 C-83.33300018310547,-113.54199981689453 -92.70899963378906,-104.16699981689453 -104.16699981689453,-104.16699981689453 C-115.625,-104.16699981689453 -125,-113.54199981689453 -125,-125 C-125,-125 -125,-167.29200744628906 -125,-167.29200744628906 C-125,-189.79200744628906 -106.66699981689453,-208.33299255371094 -84.375,-208.33299255371094 C-84.375,-208.33299255371094 84.375,-208.33299255371094 84.375,-208.33299255371094 C106.66699981689453,-208.33299255371094 125,-189.79200744628906 125,-167.29200744628906 C125,-167.29200744628906 125,167.08299255371094 125,167.08299255371094 C125,190 106.66699981689453,208.33299255371094 84.375,208.33299255371094z"/></g><g opacity="1" transform="matrix(1,0,0,1,0,0)"><g opacity="1" transform="matrix(1,0,0,1,304.7909851074219,145.83299255371094)"><g opacity="1" transform="matrix(1,0,0,1,0,0)"><path class="primary" fill="rgb(18,19,49)" fill-opacity="1" d=" M29.83799934387207,5.833000183105469 C29.83799934387207,5.833000183105469 14.838000297546387,31.66699981689453 14.838000297546387,31.66699981689453 C11.920999526977539,36.45899963378906 6.921000003814697,39.16699981689453 1.7130000591278076,39.16699981689453 C-0.7870000004768372,39.16699981689453 -3.2869999408721924,38.54100036621094 -5.7870001792907715,37.08300018310547 C-5.7870001792907715,37.08300018310547 -18.70400047302246,29.58300018310547 -18.70400047302246,29.58300018310547 C-33.07899856567383,21.25 -38.077999114990234,2.9170000553131104 -29.7450008392334,-11.25 C-29.7450008392334,-11.25 -22.2450008392334,-24.16699981689453 -22.2450008392334,-24.16699981689453 C-16.6200008392334,-33.95899963378906 -6.4120001792907715,-39.16699981689453 3.7960000038146973,-39.16699981689453 C8.795999526977539,-39.16699981689453 14.213000297546387,-38.125 18.79599952697754,-35.20800018310547 C33.17100143432617,-27.08300018310547 37.9630012512207,-8.541999816894531 29.83799934387207,5.833000183105469z"/></g></g></g><g opacity="1" transform="matrix(1,0,0,1,208.38299560546875,322.9169921875)"><path class="primary" fill="rgb(18,19,49)" fill-opacity="1" d=" M145.8300018310547,-10.416999816894531 C145.8300018310547,1.0410000085830688 136.4550018310547,10.416999816894531 124.99700164794922,10.416999816894531 C124.99700164794922,10.416999816894531 82.28800201416016,10.416999816894531 82.28800201416016,10.416999816894531 C70.83000183105469,10.416999816894531 61.45500183105469,1.0410000085830688 61.45500183105469,-10.416999816894531 C61.45500183105469,-10.416999816894531 61.45500183105469,-65 61.45500183105469,-65 C61.45500183105469,-65 30.829999923706055,-16.25 30.829999923706055,-16.25 C30.829999923706055,-16.25 60.20500183105469,42.70800018310547 60.20500183105469,42.70800018310547 C61.66299819946289,45.625 62.49700164794922,48.75 62.49700164794922,52.08300018310547 C62.49700164794922,52.08300018310547 62.49700164794922,114.58300018310547 62.49700164794922,114.58300018310547 C62.49700164794922,126.04100036621094 53.12099838256836,135.41700744628906 41.66299819946289,135.41700744628906 C30.204999923706055,135.41700744628906 20.829999923706055,126.04100036621094 20.829999923706055,114.58300018310547 C20.829999923706055,114.58300018310547 20.829999923706055,57.08300018310547 20.829999923706055,57.08300018310547 C20.829999923706055,57.08300018310547 -11.253000259399414,-7.291999816894531 -11.253000259399414,-7.291999816894531 C-11.253000259399414,-7.291999816894531 -45.21200180053711,42.91699981689453 -45.21200180053711,42.91699981689453 C-47.91999816894531,46.66699981689453 -51.66999816894531,49.58399963378906 -55.83700180053711,51.04199981689453 C-55.83700180053711,51.04199981689453 -118.33699798583984,71.875 -118.33699798583984,71.875 C-120.62899780273438,72.5 -122.91999816894531,72.91699981689453 -125.00299835205078,72.91699981689453 C-133.7530059814453,72.91699981689453 -141.8780059814453,67.5 -144.7949981689453,58.75 C-148.33700561523438,47.70800018310547 -142.5030059814453,36.04199981689453 -131.6699981689453,32.29199981689453 C-131.6699981689453,32.29199981689453 -75.83699798583984,13.75 -75.83699798583984,13.75 C-75.83699798583984,13.75 -2.9200000762939453,-93.75 -2.9200000762939453,-93.75 C-2.9200000762939453,-93.75 -33.12799835205078,-93.75 -33.12799835205078,-93.75 C-33.12799835205078,-93.75 -68.54499816894531,-58.125 -68.54499816894531,-58.125 C-76.66999816894531,-50 -90.00299835205078,-50 -98.12799835205078,-58.125 C-106.25299835205078,-66.25 -106.25299835205078,-79.58300018310547 -98.12799835205078,-87.70800018310547 C-98.12799835205078,-87.70800018310547 -56.46200180053711,-129.375 -56.46200180053711,-129.375 C-52.50400161743164,-133.125 -47.29499816894531,-135.41700744628906 -41.66999816894531,-135.41700744628906 C-41.66999816894531,-135.41700744628906 42.70500183105469,-135.41700744628906 42.70500183105469,-135.41700744628906 C76.03800201416016,-135.41700744628906 103.12200164794922,-107.29199981689453 103.12200164794922,-72.91699981689453 C103.12200164794922,-72.91699981689453 103.12200164794922,-31.25 103.12200164794922,-31.25 C103.12200164794922,-31.25 124.99700164794922,-31.25 124.99700164794922,-31.25 C136.4550018310547,-31.25 145.8300018310547,-21.875 145.8300018310547,-10.416999816894531z"/></g></g><g class="primary design" transform="matrix(1,0,0,1,0,0)" opacity="1" style="display: block;"><g opacity="1" transform="matrix(1,0,0,1,291.7130126953125,250)"><path class="primary" fill="rgb(18,19,49)" fill-opacity="1" d=" M84.375,208.33299255371094 C84.375,208.33299255371094 41.66699981689453,208.33299255371094 41.66699981689453,208.33299255371094 C30.208999633789062,208.33299255371094 20.83300018310547,198.95799255371094 20.83300018310547,187.5 C20.83300018310547,176.04200744628906 30.208999633789062,166.66700744628906 41.66699981689453,166.66700744628906 C41.66699981689453,166.66700744628906 84.375,166.66700744628906 84.375,166.66700744628906 C84.375,166.66700744628906 83.33300018310547,-167.29200744628906 83.33300018310547,-167.29200744628906 C83.33300018310547,-167.29200744628906 -84.375,-166.66700744628906 -84.375,-166.66700744628906 C-84.375,-166.66700744628906 -83.33300018310547,-125 -83.33300018310547,-125 C-83.33300018310547,-113.54199981689453 -92.70899963378906,-104.16699981689453 -104.16699981689453,-104.16699981689453 C-115.625,-104.16699981689453 -125,-113.54199981689453 -125,-125 C-125,-125 -125,-167.29200744628906 -125,-167.29200744628906 C-125,-189.79200744628906 -106.66699981689453,-208.33299255371094 -84.375,-208.33299255371094 C-84.375,-208.33299255371094 84.375,-208.33299255371094 84.375,-208.33299255371094 C106.66699981689453,-208.33299255371094 125,-189.79200744628906 125,-167.29200744628906 C125,-167.29200744628906 125,167.08299255371094 125,167.08299255371094 C125,190 106.66699981689453,208.33299255371094 84.375,208.33299255371094z"/></g><g opacity="1" transform="matrix(1,0,0,1,0,0)"><g opacity="1" transform="matrix(1,0,0,1,304.7909851074219,145.83299255371094)"><g opacity="1" transform="matrix(1,0,0,1,0,0)"><path class="primary" fill="rgb(18,19,49)" fill-opacity="1" d=" M29.83799934387207,5.833000183105469 C29.83799934387207,5.833000183105469 14.838000297546387,31.66699981689453 14.838000297546387,31.66699981689453 C11.920999526977539,36.45899963378906 6.921000003814697,39.16699981689453 1.7130000591278076,39.16699981689453 C-0.7870000004768372,39.16699981689453 -3.2869999408721924,38.54100036621094 -5.7870001792907715,37.08300018310547 C-5.7870001792907715,37.08300018310547 -18.70400047302246,29.58300018310547 -18.70400047302246,29.58300018310547 C-33.07899856567383,21.25 -38.077999114990234,2.9170000553131104 -29.7450008392334,-11.25 C-29.7450008392334,-11.25 -22.2450008392334,-24.16699981689453 -22.2450008392334,-24.16699981689453 C-16.6200008392334,-33.95899963378906 -6.4120001792907715,-39.16699981689453 3.7960000038146973,-39.16699981689453 C8.795999526977539,-39.16699981689453 14.213000297546387,-38.125 18.79599952697754,-35.20800018310547 C33.17100143432617,-27.08300018310547 37.9630012512207,-8.541999816894531 29.83799934387207,5.833000183105469z"/></g></g></g><g opacity="1" transform="matrix(1,0,0,1,208.38299560546875,322.9169921875)"><path class="primary" fill="rgb(18,19,49)" fill-opacity="1" d=" M145.8300018310547,-10.416999816894531 C145.8300018310547,1.0410000085830688 136.4550018310547,10.416999816894531 124.99700164794922,10.416999816894531 C124.99700164794922,10.416999816894531 82.28800201416016,10.416999816894531 82.28800201416016,10.416999816894531 C70.83000183105469,10.416999816894531 61.45500183105469,1.0410000085830688 61.45500183105469,-10.416999816894531 C61.45500183105469,-10.416999816894531 61.45500183105469,-65 61.45500183105469,-65 C61.45500183105469,-65 30.829999923706055,-16.25 30.829999923706055,-16.25 C30.829999923706055,-16.25 60.20500183105469,42.70800018310547 60.20500183105469,42.70800018310547 C61.66299819946289,45.625 62.49700164794922,48.75 62.49700164794922,52.08300018310547 C62.49700164794922,52.08300018310547 62.49700164794922,114.58300018310547 62.49700164794922,114.58300018310547 C62.49700164794922,126.04100036621094 53.12099838256836,135.41700744628906 41.66299819946289,135.41700744628906 C30.204999923706055,135.41700744628906 20.829999923706055,126.04100036621094 20.829999923706055,114.58300018310547 C20.829999923706055,114.58300018310547 20.829999923706055,57.08300018310547 20.829999923706055,57.08300018310547 C20.829999923706055,57.08300018310547 -11.253000259399414,-7.291999816894531 -11.253000259399414,-7.291999816894531 C-11.253000259399414,-7.291999816894531 -45.21200180053711,42.91699981689453 -45.21200180053711,42.91699981689453 C-47.91999816894531,46.66699981689453 -51.66999816894531,49.58399963378906 -55.83700180053711,51.04199981689453 C-55.83700180053711,51.04199981689453 -118.33699798583984,71.875 -118.33699798583984,71.875 C-120.62899780273438,72.5 -122.91999816894531,72.91699981689453 -125.00299835205078,72.91699981689453 C-133.7530059814453,72.91699981689453 -141.8780059814453,67.5 -144.7949981689453,58.75 C-148.33700561523438,47.70800018310547 -142.5030059814453,36.04199981689453 -131.6699981689453,32.29199981689453 C-131.6699981689453,32.29199981689453 -75.83699798583984,13.75 -75.83699798583984,13.75 C-75.83699798583984,13.75 -2.9200000762939453,-93.75 -2.9200000762939453,-93.75 C-2.9200000762939453,-93.75 -33.12799835205078,-93.75 -33.12799835205078,-93.75 C-33.12799835205078,-93.75 -68.54499816894531,-58.125 -68.54499816894531,-58.125 C-76.66999816894531,-50 -90.00299835205078,-50 -98.12799835205078,-58.125 C-106.25299835205078,-66.25 -106.25299835205078,-79.58300018310547 -98.12799835205078,-87.70800018310547 C-98.12799835205078,-87.70800018310547 -56.46200180053711,-129.375 -56.46200180053711,-129.375 C-52.50400161743164,-133.125 -47.29499816894531,-135.41700744628906 -41.66999816894531,-135.41700744628906 C-41.66999816894531,-135.41700744628906 42.70500183105469,-135.41700744628906 42.70500183105469,-135.41700744628906 C76.03800201416016,-135.41700744628906 103.12200164794922,-107.29199981689453 103.12200164794922,-72.91699981689453 C103.12200164794922,-72.91699981689453 103.12200164794922,-31.25 103.12200164794922,-31.25 C103.12200164794922,-31.25 124.99700164794922,-31.25 124.99700164794922,-31.25 C136.4550018310547,-31.25 145.8300018310547,-21.875 145.8300018310547,-10.416999816894531z"/></g></g></g><g clip-path="url(#__lottie_element_465)" transform="matrix(1,0,0,1,0,0)" opacity="1" style="display: none;"><g class="primary design" transform="matrix(1,0,0,1,0,0)" opacity="1" style="display: block;"><g opacity="1" transform="matrix(1,0,0,1,291.7130126953125,250)"><path class="primary" fill="rgb(18,19,49)" fill-opacity="1" d=" M84.375,208.33299255371094 C84.375,208.33299255371094 41.66699981689453,208.33299255371094 41.66699981689453,208.33299255371094 C30.208999633789062,208.33299255371094 20.83300018310547,198.95799255371094 20.83300018310547,187.5 C20.83300018310547,176.04200744628906 30.208999633789062,166.66700744628906 41.66699981689453,166.66700744628906 C41.66699981689453,166.66700744628906 84.375,166.66700744628906 84.375,166.66700744628906 C84.375,166.66700744628906 83.33300018310547,-167.29200744628906 83.33300018310547,-167.29200744628906 C83.33300018310547,-167.29200744628906 -84.375,-166.66700744628906 -84.375,-166.66700744628906 C-84.375,-166.66700744628906 -83.33300018310547,-125 -83.33300018310547,-125 C-83.33300018310547,-113.54199981689453 -92.70899963378906,-104.16699981689453 -104.16699981689453,-104.16699981689453 C-115.625,-104.16699981689453 -125,-113.54199981689453 -125,-125 C-125,-125 -125,-167.29200744628906 -125,-167.29200744628906 C-125,-189.79200744628906 -106.66699981689453,-208.33299255371094 -84.375,-208.33299255371094 C-84.375,-208.33299255371094 84.375,-208.33299255371094 84.375,-208.33299255371094 C106.66699981689453,-208.33299255371094 125,-189.79200744628906 125,-167.29200744628906 C125,-167.29200744628906 125,167.08299255371094 125,167.08299255371094 C125,190 106.66699981689453,208.33299255371094 84.375,208.33299255371094z"/></g></g><g class="primary design" transform="matrix(1,0,0,1,0,0)" opacity="1" style="display: none;"><g opacity="1" transform="matrix(1,0,0,1,291.7130126953125,250)"><path class="primary" fill="rgb(18,19,49)" fill-opacity="1" d=" M84.375,208.33299255371094 C84.375,208.33299255371094 41.66699981689453,208.33299255371094 41.66699981689453,208.33299255371094 C30.208999633789062,208.33299255371094 20.83300018310547,198.95799255371094 20.83300018310547,187.5 C20.83300018310547,176.04200744628906 30.208999633789062,166.66700744628906 41.66699981689453,166.66700744628906 C41.66699981689453,166.66700744628906 84.375,166.66700744628906 84.375,166.66700744628906 C84.375,166.66700744628906 83.33300018310547,-167.29200744628906 83.33300018310547,-167.29200744628906 C83.33300018310547,-167.29200744628906 -84.375,-166.66700744628906 -84.375,-166.66700744628906 C-84.375,-166.66700744628906 -83.33300018310547,-125 -83.33300018310547,-125 C-83.33300018310547,-113.54199981689453 -92.70899963378906,-104.16699981689453 -104.16699981689453,-104.16699981689453 C-115.625,-104.16699981689453 -125,-113.54199981689453 -125,-125 C-125,-125 -125,-167.29200744628906 -125,-167.29200744628906 C-125,-189.79200744628906 -106.66699981689453,-208.33299255371094 -84.375,-208.33299255371094 C-84.375,-208.33299255371094 84.375,-208.33299255371094 84.375,-208.33299255371094 C106.66699981689453,-208.33299255371094 125,-189.79200744628906 125,-167.29200744628906 C125,-167.29200744628906 125,167.08299255371094 125,167.08299255371094 C125,190 106.66699981689453,208.33299255371094 84.375,208.33299255371094z"/></g><g opacity="1" transform="matrix(1,0,0,1,0,0)"><g opacity="1" transform="matrix(1,0,0,1,304.7909851074219,145.83299255371094)"><g opacity="1" transform="matrix(1,0,0,1,0,0)"><path class="primary" fill="rgb(18,19,49)" fill-opacity="1" d=" M29.83799934387207,5.833000183105469 C29.83799934387207,5.833000183105469 14.838000297546387,31.66699981689453 14.838000297546387,31.66699981689453 C11.920999526977539,36.45899963378906 6.921000003814697,39.16699981689453 1.7130000591278076,39.16699981689453 C-0.7870000004768372,39.16699981689453 -3.2869999408721924,38.54100036621094 -5.7870001792907715,37.08300018310547 C-5.7870001792907715,37.08300018310547 -18.70400047302246,29.58300018310547 -18.70400047302246,29.58300018310547 C-33.07899856567383,21.25 -38.077999114990234,2.9170000553131104 -29.7450008392334,-11.25 C-29.7450008392334,-11.25 -22.2450008392334,-24.16699981689453 -22.2450008392334,-24.16699981689453 C-16.6200008392334,-33.95899963378906 -6.4120001792907715,-39.16699981689453 3.7960000038146973,-39.16699981689453 C8.795999526977539,-39.16699981689453 14.213000297546387,-38.125 18.79599952697754,-35.20800018310547 C33.17100143432617,-27.08300018310547 37.9630012512207,-8.541999816894531 29.83799934387207,5.833000183105469z"/></g></g></g><g opacity="1" transform="matrix(1,0,0,1,208.38299560546875,322.9169921875)"><path class="primary" fill="rgb(18,19,49)" fill-opacity="1" d=" M145.8300018310547,-10.416999816894531 C145.8300018310547,1.0410000085830688 136.4550018310547,10.416999816894531 124.99700164794922,10.416999816894531 C124.99700164794922,10.416999816894531 82.28800201416016,10.416999816894531 82.28800201416016,10.416999816894531 C70.83000183105469,10.416999816894531 61.45500183105469,1.0410000085830688 61.45500183105469,-10.416999816894531 C61.45500183105469,-10.416999816894531 61.45500183105469,-65 61.45500183105469,-65 C61.45500183105469,-65 30.829999923706055,-16.25 30.829999923706055,-16.25 C30.829999923706055,-16.25 60.20500183105469,42.70800018310547 60.20500183105469,42.70800018310547 C61.66299819946289,45.625 62.49700164794922,48.75 62.49700164794922,52.08300018310547 C62.49700164794922,52.08300018310547 62.49700164794922,114.58300018310547 62.49700164794922,114.58300018310547 C62.49700164794922,126.04100036621094 53.12099838256836,135.41700744628906 41.66299819946289,135.41700744628906 C30.204999923706055,135.41700744628906 20.829999923706055,126.04100036621094 20.829999923706055,114.58300018310547 C20.829999923706055,114.58300018310547 20.829999923706055,57.08300018310547 20.829999923706055,57.08300018310547 C20.829999923706055,57.08300018310547 -11.253000259399414,-7.291999816894531 -11.253000259399414,-7.291999816894531 C-11.253000259399414,-7.291999816894531 -45.21200180053711,42.91699981689453 -45.21200180053711,42.91699981689453 C-47.91999816894531,46.66699981689453 -51.66999816894531,49.58399963378906 -55.83700180053711,51.04199981689453 C-55.83700180053711,51.04199981689453 -118.33699798583984,71.875 -118.33699798583984,71.875 C-120.62899780273438,72.5 -122.91999816894531,72.91699981689453 -125.00299835205078,72.91699981689453 C-133.7530059814453,72.91699981689453 -141.8780059814453,67.5 -144.7949981689453,58.75 C-148.33700561523438,47.70800018310547 -142.5030059814453,36.04199981689453 -131.6699981689453,32.29199981689453 C-131.6699981689453,32.29199981689453 -75.83699798583984,13.75 -75.83699798583984,13.75 C-75.83699798583984,13.75 -2.9200000762939453,-93.75 -2.9200000762939453,-93.75 C-2.9200000762939453,-93.75 -33.12799835205078,-93.75 -33.12799835205078,-93.75 C-33.12799835205078,-93.75 -68.54499816894531,-58.125 -68.54499816894531,-58.125 C-76.66999816894531,-50 -90.00299835205078,-50 -98.12799835205078,-58.125 C-106.25299835205078,-66.25 -106.25299835205078,-79.58300018310547 -98.12799835205078,-87.70800018310547 C-98.12799835205078,-87.70800018310547 -56.46200180053711,-129.375 -56.46200180053711,-129.375 C-52.50400161743164,-133.125 -47.29499816894531,-135.41700744628906 -41.66999816894531,-135.41700744628906 C-41.66999816894531,-135.41700744628906 42.70500183105469,-135.41700744628906 42.70500183105469,-135.41700744628906 C76.03800201416016,-135.41700744628906 103.12200164794922,-107.29199981689453 103.12200164794922,-72.91699981689453 C103.12200164794922,-72.91699981689453 103.12200164794922,-31.25 103.12200164794922,-31.25 C103.12200164794922,-31.25 124.99700164794922,-31.25 124.99700164794922,-31.25 C136.4550018310547,-31.25 145.8300018310547,-21.875 145.8300018310547,-10.416999816894531z"/></g></g><g class="primary design" transform="matrix(1,0,0,1,291.66400146484375,250.00100708007812)" opacity="1" style="display: none;"><g opacity="1" transform="matrix(1,0,0,1,0,0)"><path stroke-linecap="round" stroke-linejoin="round" fill-opacity="0" class="primary" stroke="rgb(18,19,49)" stroke-opacity="1" stroke-width="42" d=" M42.51100158691406,187.70799255371094 C55.4109992980957,187.70799255371094 84.58000183105469,187.70799255371094 84.58000183105469,187.70799255371094 C96.08599853515625,187.70799255371094 105.41400146484375,178.38099670410156 105.41400146484375,166.875 C105.41400146484375,166.875 105.49800109863281,-166.875 105.49800109863281,-166.875 C105.49800109863281,-178.38099670410156 96.16999816894531,-187.70799255371094 84.66400146484375,-187.70799255371094 C84.66400146484375,-187.70799255371094 -83.41799926757812,-187.58200073242188 -83.41799926757812,-187.58200073242188 C-94.92400360107422,-187.58200073242188 -104.25199890136719,-178.25399780273438 -104.25199890136719,-166.7480010986328 C-104.25199890136719,-166.7480010986328 -104.24400329589844,-150.66400146484375 -104.23200225830078,-125.35199737548828"/></g></g><g clip-path="url(#__lottie_element_686)" transform="matrix(1,0,0,1,-76.64338684082031,0)" opacity="1" style="display: block;"><g class="primary design" transform="matrix(0.9595882296562195,-0.2814081013202667,0.2814081013202667,0.9595882296562195,-48.47760009765625,76.46888732910156)" opacity="1" style="display: block;"><g opacity="1" transform="matrix(1,0,0,1,299.4830017089844,148.27499389648438)"><g opacity="1" transform="matrix(1,0,0,1,0,0)"><path class="primary" fill="rgb(18,19,49)" fill-opacity="1" d=" M34.84299850463867,3.819000005722046 C34.84299850463867,3.819000005722046 19.827999114990234,29.719999313354492 19.827999114990234,29.719999313354492 C17.011999130249023,34.5989990234375 11.944000244140625,37.22700119018555 6.689000129699707,37.22700119018555 C4.249000072479248,37.22700119018555 1.621000051498413,36.665000915527344 -0.8190000057220459,35.16299819946289 C-0.8190000057220459,35.16299819946289 -13.770000457763672,27.655000686645508 -13.770000457763672,27.655000686645508 C-28.22100067138672,19.39699935913086 -33.10100173950195,1.003000020980835 -24.843000411987305,-13.26200008392334 C-24.843000411987305,-13.26200008392334 -17.336000442504883,-26.211999893188477 -17.336000442504883,-26.211999893188477 C-11.704000473022461,-35.97100067138672 -1.5700000524520874,-41.22700119018555 8.753000259399414,-41.22700119018555 C13.821000099182129,-41.22700119018555 19.076000213623047,-40.10100173950195 23.76799964904785,-37.28499984741211 C38.220001220703125,-29.027000427246094 43.10100173950195,-10.633000373840332 34.84299850463867,3.819000005722046z"/></g></g></g><g class="primary design" transform="matrix(-0.40727636218070984,-0.9133049845695496,0.9133049845695496,-0.40727636218070984,340.4908447265625,228.5916290283203)" opacity="1" style="display: block;"><g opacity="1" transform="matrix(1,0,0,1,0,0)"><path stroke-linecap="round" stroke-linejoin="round" fill-opacity="0" class="primary" stroke="rgb(18,19,49)" stroke-opacity="1" stroke-width="42" d=" M15.84480094909668,-51.8541145324707 C15.84480094909668,-51.8541145324707 -54.66884994506836,-61.53435516357422 -54.66884994506836,-61.53435516357422 C-54.66884994506836,-61.53435516357422 -60.05775451660156,-11.34124755859375 -60.05775451660156,-11.34124755859375"/></g></g><g class="primary design" transform="matrix(-0.07484138756990433,0.9971954822540283,-0.9971954822540283,-0.07484138756990433,222.7564697265625,138.7611846923828)" opacity="1" style="display: block;"><g opacity="1" transform="matrix(1,0,0,1,0,0)"><path stroke-linecap="round" stroke-linejoin="round" fill-opacity="0" class="primary" stroke="rgb(18,19,49)" stroke-opacity="1" stroke-width="42" d=" M105.92639923095703,106.34935760498047 C105.92639923095703,106.34935760498047 58.82543182373047,54.865760803222656 58.82543182373047,54.865760803222656 C58.82543182373047,54.865760803222656 61.49430847167969,-24.056053161621094 61.49430847167969,-24.056053161621094"/></g></g><g class="primary design" style="display: none;"><g><path class="primary"/></g></g><g class="primary design" transform="matrix(0.9981418251991272,-0.06093399226665497,0.06093399226665497,0.9981418251991272,176.77203369140625,325.082763671875)" opacity="1" style="display: block;"><g opacity="1" transform="matrix(1,0,0,1,0,0)"><path class="primary" fill="rgb(18,19,49)" fill-opacity="1" d=" M112.96700286865234,-98.552001953125 C112.96700286865234,-98.552001953125 67.66100311279297,-20.405000686645508 67.66100311279297,-20.405000686645508 C67.66100311279297,-20.405000686645508 62.23500061035156,-11.04699993133545 62.23500061035156,-11.04699993133545 C62.23500061035156,-11.04699993133545 45.98500061035156,2.0329999923706055 19.110000610351562,-10.84000015258789 C-6.455999851226807,-23.086000442504883 -4.73199987411499,-41.9370002746582 -4.73199987411499,-41.9370002746582 C-4.73199987411499,-41.9370002746582 0.3319999873638153,-50.500999450683594 0.3319999873638153,-50.500999450683594 C0.3319999873638153,-50.500999450683594 47.698001861572266,-130.61399841308594 47.698001861572266,-130.61399841308594"/></g></g><g class="primary design" transform="matrix(0.9981418251991272,-0.06093399226665497,0.06093399226665497,0.9981418251991272,227.72068786621094,254.5471954345703)" opacity="1" style="display: block;"><g opacity="1" transform="matrix(1,0,0,1,0,0)"><path stroke-linecap="round" stroke-linejoin="round" fill-opacity="0" class="primary" stroke="rgb(18,19,49)" stroke-opacity="1" stroke-width="31.3" d=" M41.58300018310547,-23.91699981689453 C41.58300018310547,-23.91699981689453 60.33300018310547,-18.417999267578125 65.79499816894531,-14.623000144958496 C65.79499816894531,-37.6349983215332 41.83300018310547,-60.917999267578125 15.628000259399414,-57.290000915527344 C15.628000259399414,-57.290000915527344 6.083000183105469,-54.66699981689453 6.083000183105469,-54.66699981689453"/></g></g><g class="primary design" transform="matrix(0.046653810888528824,-0.9989111423492432,0.9989111423492432,0.046653810888528824,183.0895233154297,234.16110229492188)" opacity="1" style="display: block;"><g opacity="1" transform="matrix(1,0,0,1,0,0)"><path stroke-linecap="round" stroke-linejoin="round" fill-opacity="0" class="primary" stroke="rgb(18,19,49)" stroke-opacity="1" stroke-width="42" d=" M-62.87493133544922,32.017486572265625 C-62.87493133544922,32.017486572265625 -100.51119232177734,103.91661071777344 -100.51119232177734,103.91661071777344 C-100.51119232177734,103.91661071777344 -158.95875549316406,161.25796508789062 -158.95875549316406,161.25796508789062"/></g></g><g class="primary design" transform="matrix(0.15643446147441864,0.9876883625984192,-0.9876883625984192,0.15643446147441864,248.62164306640625,324.4306335449219)" opacity="1" style="display: block;"><g opacity="1" transform="matrix(1,0,0,1,0,0)"><path stroke-linecap="round" stroke-linejoin="round" fill-opacity="0" class="primary" stroke="rgb(18,19,49)" stroke-opacity="1" stroke-width="42" d=" M-40.970977783203125,56.15065383911133 C-40.970977783203125,56.15065383911133 2.3158926963806152,106.21720886230469 2.3158926963806152,106.21720886230469 C2.3158926963806152,106.21720886230469 -23.187772750854492,180.9468994140625 -23.187772750854492,180.9468994140625"/></g></g></g><g mask="url(#__lottie_element_693_2)" style="display: block;"><g clip-path="url(#__lottie_element_690)" transform="matrix(1,0,0,1,218.37136840820312,0)" opacity="1"><g class="primary design" transform="matrix(0.9847466945648193,-0.17399436235427856,0.17399436235427856,0.9847466945648193,-35.71380615234375,20.54107666015625)" opacity="1" style="display: block;"><g opacity="1" transform="matrix(1,0,0,1,299.4830017089844,148.27499389648438)"><g opacity="1" transform="matrix(1,0,0,1,0,0)"><path class="primary" fill="rgb(18,19,49)" fill-opacity="1" d=" M35.09299850463867,3.569000005722046 C35.09299850463867,3.569000005722046 20.077999114990234,29.469999313354492 20.077999114990234,29.469999313354492 C17.261999130249023,34.3489990234375 12.194000244140625,36.97700119018555 6.939000129699707,36.97700119018555 C4.499000072479248,36.97700119018555 1.871000051498413,36.415000915527344 -0.5690000057220459,34.91299819946289 C-0.5690000057220459,34.91299819946289 -13.520000457763672,27.405000686645508 -13.520000457763672,27.405000686645508 C-27.97100067138672,19.14699935913086 -32.85100173950195,0.753000020980835 -24.593000411987305,-13.51200008392334 C-24.593000411987305,-13.51200008392334 -17.086000442504883,-26.461999893188477 -17.086000442504883,-26.461999893188477 C-11.454000473022461,-36.22100067138672 -1.3200000524520874,-41.47700119018555 9.003000259399414,-41.47700119018555 C14.071000099182129,-41.47700119018555 19.326000213623047,-40.35100173950195 24.01799964904785,-37.53499984741211 C38.470001220703125,-29.277000427246094 43.35100173950195,-10.883000373840332 35.09299850463867,3.569000005722046z"/></g></g></g><g class="primary design" transform="matrix(-0.24136558175086975,-0.970434308052063,0.970434308052063,-0.24136558175086975,338.35565185546875,211.16665649414062)" opacity="1" style="display: block;"><g opacity="1" transform="matrix(1,0,0,1,0,0)"><path stroke-linecap="round" stroke-linejoin="round" fill-opacity="0" class="primary" stroke="rgb(18,19,49)" stroke-opacity="1" stroke-width="42" d=" M13.402856826782227,-52.166053771972656 C13.402856826782227,-52.166053771972656 -46.65119171142578,-57.23384475708008 -46.65119171142578,-57.23384475708008 C-46.65119171142578,-57.23384475708008 -73.71449279785156,-22.34160041809082 -73.71449279785156,-22.34160041809082"/></g></g><g class="primary design" transform="matrix(0.2220071256160736,0.9750450849533081,-0.9750450849533081,0.2220071256160736,213.60415649414062,130.32542419433594)" opacity="1" style="display: block;"><g opacity="1" transform="matrix(1,0,0,1,0,0)"><path stroke-linecap="round" stroke-linejoin="round" fill-opacity="0" class="primary" stroke="rgb(18,19,49)" stroke-opacity="1" stroke-width="42" d=" M103.1854019165039,97.3330078125 C103.1854019165039,97.3330078125 48.5050048828125,56.563316345214844 48.5050048828125,56.563316345214844 C48.5050048828125,56.563316345214844 55.26605987548828,-15.453164100646973 55.26605987548828,-15.453164100646973"/></g></g><g class="primary design" style="display: none;"><g><path class="primary"/></g></g><g class="primary design" transform="matrix(0.99083411693573,-0.13508445024490356,0.13508445024490356,0.99083411693573,186.74725341796875,309.9030456542969)" opacity="1" style="display: block;"><g opacity="1" transform="matrix(1,0,0,1,0,0)"><path class="primary" fill="rgb(18,19,49)" fill-opacity="1" d=" M112.96700286865234,-98.552001953125 C112.96700286865234,-98.552001953125 67.66100311279297,-20.405000686645508 67.66100311279297,-20.405000686645508 C67.66100311279297,-20.405000686645508 62.23500061035156,-11.04699993133545 62.23500061035156,-11.04699993133545 C62.23500061035156,-11.04699993133545 45.98500061035156,2.0329999923706055 19.110000610351562,-10.84000015258789 C-6.455999851226807,-23.086000442504883 -4.73199987411499,-41.9370002746582 -4.73199987411499,-41.9370002746582 C-4.73199987411499,-41.9370002746582 0.3319999873638153,-50.500999450683594 0.3319999873638153,-50.500999450683594 C0.3319999873638153,-50.500999450683594 47.698001861572266,-130.61399841308594 47.698001861572266,-130.61399841308594"/></g></g><g class="primary design" transform="matrix(0.99083411693573,-0.13508445024490356,0.13508445024490356,0.99083411693573,232.30255126953125,235.76974487304688)" opacity="1" style="display: block;"><g opacity="1" transform="matrix(1,0,0,1,0,0)"><path stroke-linecap="round" stroke-linejoin="round" fill-opacity="0" class="primary" stroke="rgb(18,19,49)" stroke-opacity="1" stroke-width="42" d=" M32.65983963012695,-11.215980529785156 C32.65983963012695,-11.215980529785156 48.48970413208008,-16.066553115844727 58.36647415161133,-15.832975387573242 C58.36647415161133,-38.844974517822266 37.14613723754883,-57.427223205566406 14.134139060974121,-57.427223205566406 C14.134139060974121,-57.427223205566406 6.20102071762085,-54.857032775878906 6.20102071762085,-54.857032775878906"/></g></g><g class="primary design" transform="matrix(0.1836874634027481,-0.982984721660614,0.982984721660614,0.1836874634027481,198.9742431640625,210.8136444091797)" opacity="1" style="display: block;"><g opacity="1" transform="matrix(1,0,0,1,0,0)"><path stroke-linecap="round" stroke-linejoin="round" fill-opacity="0" class="primary" stroke="rgb(18,19,49)" stroke-opacity="1" stroke-width="42" d=" M-67.02277374267578,31.052303314208984 C-67.02277374267578,31.052303314208984 -95.34991455078125,103.61824035644531 -95.34991455078125,103.61824035644531 C-95.34991455078125,103.61824035644531 -159.99755859375,148.5487518310547 -159.99755859375,148.5487518310547"/></g></g><g class="primary design" transform="matrix(0.29073143005371094,0.9568046927452087,-0.9568046927452087,0.29073143005371094,264.4169921875,299.131591796875)" opacity="1" style="display: block;"><g opacity="1" transform="matrix(1,0,0,1,0,0)"><path stroke-linecap="round" stroke-linejoin="round" fill-opacity="0" class="primary" stroke="rgb(18,19,49)" stroke-opacity="1" stroke-width="42" d=" M-42.98957061767578,59.045780181884766 C-42.98957061767578,59.045780181884766 1.9163908958435059,107.72252655029297 1.9163908958435059,107.72252655029297 C1.9163908958435059,107.72252655029297 -18.478670120239258,182.38250732421875 -18.478670120239258,182.38250732421875"/></g></g></g></g><g clip-path="url(#__lottie_element_655)" transform="matrix(1,0,0,1,-7.1175994873046875,0)" opacity="1" style="display: none;"><g class="primary design" transform="matrix(0.9998525977134705,-0.017171388491988182,0.017171388491988182,0.9998525977134705,-3.2998504638671875,4.712158203125)" opacity="1" style="display: block;"><g opacity="1" transform="matrix(1,0,0,1,299.4830017089844,148.27499389648438)"><g opacity="1" transform="matrix(1,0,0,1,0,0)"><path class="primary" fill="rgb(18,19,49)" fill-opacity="1" d=" M35.09299850463867,3.569000005722046 C35.09299850463867,3.569000005722046 20.077999114990234,29.469999313354492 20.077999114990234,29.469999313354492 C17.261999130249023,34.3489990234375 12.194000244140625,36.97700119018555 6.939000129699707,36.97700119018555 C4.499000072479248,36.97700119018555 1.871000051498413,36.415000915527344 -0.5690000057220459,34.91299819946289 C-0.5690000057220459,34.91299819946289 -13.520000457763672,27.405000686645508 -13.520000457763672,27.405000686645508 C-27.97100067138672,19.14699935913086 -32.85100173950195,0.753000020980835 -24.593000411987305,-13.51200008392334 C-24.593000411987305,-13.51200008392334 -17.086000442504883,-26.461999893188477 -17.086000442504883,-26.461999893188477 C-11.454000473022461,-36.22100067138672 -1.3200000524520874,-41.47700119018555 9.003000259399414,-41.47700119018555 C14.071000099182129,-41.47700119018555 19.326000213623047,-40.35100173950195 24.01799964904785,-37.53499984741211 C38.470001220703125,-29.277000427246094 43.35100173950195,-10.883000373840332 35.09299850463867,3.569000005722046z"/></g></g></g><g class="primary design" transform="matrix(-0.10742698609828949,-0.9942129850387573,0.9942129850387573,-0.10742698609828949,342.782958984375,256.1976623535156)" opacity="1" style="display: block;"><g opacity="1" transform="matrix(1,0,0,1,0,0)"><path stroke-linecap="round" stroke-linejoin="round" fill-opacity="0" class="primary" stroke="rgb(18,19,49)" stroke-opacity="1" stroke-width="42" d=" M19.21286392211914,-51.2042350769043 C19.21286392211914,-51.2042350769043 -50.787567138671875,-57.477630615234375 -50.787567138671875,-57.477630615234375 C-50.787567138671875,-57.477630615234375 -55.34795379638672,-14.91916561126709 -55.34795379638672,-14.91916561126709"/></g></g><g class="primary design" transform="matrix(-0.018193386495113373,0.9998345375061035,-0.9998345375061035,-0.018193386495113373,224.64218139648438,146.0918731689453)" opacity="1" style="display: block;"><g opacity="1" transform="matrix(1,0,0,1,0,0)"><path stroke-linecap="round" stroke-linejoin="round" fill-opacity="0" class="primary" stroke="rgb(18,19,49)" stroke-opacity="1" stroke-width="42" d=" M105.5958023071289,97.56803131103516 C105.5958023071289,97.56803131103516 62.737369537353516,55.261390686035156 62.737369537353516,55.261390686035156 C62.737369537353516,55.261390686035156 62.2467041015625,-18.074016571044922 62.2467041015625,-18.074016571044922"/></g></g><g class="primary design" style="display: none;"><g><path class="primary"/></g></g><g class="primary design" transform="matrix(0.9999999403953552,-0.00042218732414767146,0.00042218732414767146,0.9999999403953552,174.01675415039062,327.7301025390625)" opacity="1" style="display: block;"><g opacity="1" transform="matrix(1,0,0,1,0,0)"><path class="primary" fill="rgb(18,19,49)" fill-opacity="1" d=" M112.96700286865234,-98.552001953125 C112.96700286865234,-98.552001953125 67.66100311279297,-20.405000686645508 67.66100311279297,-20.405000686645508 C67.66100311279297,-20.405000686645508 62.23500061035156,-11.04699993133545 62.23500061035156,-11.04699993133545 C62.23500061035156,-11.04699993133545 45.98500061035156,2.0329999923706055 19.110000610351562,-10.84000015258789 C-6.455999851226807,-23.086000442504883 -4.73199987411499,-41.9370002746582 -4.73199987411499,-41.9370002746582 C-4.73199987411499,-41.9370002746582 0.3319999873638153,-50.500999450683594 0.3319999873638153,-50.500999450683594 C0.3319999873638153,-50.500999450683594 47.698001861572266,-130.61399841308594 47.698001861572266,-130.61399841308594"/></g></g><g class="primary design" transform="matrix(0.9999999403953552,-0.00042218732414767146,0.00042218732414767146,0.9999999403953552,229.14035034179688,260.40679931640625)" opacity="1" style="display: block;"><g opacity="1" transform="matrix(1,0,0,1,0,0)"><path stroke-linecap="round" stroke-linejoin="round" fill-opacity="0" class="primary" stroke="rgb(18,19,49)" stroke-opacity="1" stroke-width="42" d=" M41.58300018310547,-23.91699981689453 C41.58300018310547,-23.91699981689453 59.71196746826172,-20.38068962097168 65.17396545410156,-16.585689544677734 C65.17396545410156,-39.59769058227539 42.410400390625,-57.290000915527344 19.398399353027344,-57.290000915527344 C19.398399353027344,-57.290000915527344 4.669099807739258,-56.78784942626953 4.669099807739258,-56.78784942626953"/></g></g><g class="primary design" transform="matrix(0.38350915908813477,-0.9235370755195618,0.9235370755195618,0.38350915908813477,193.45150756835938,231.0845947265625)" opacity="1" style="display: block;"><g opacity="1" transform="matrix(1,0,0,1,0,0)"><path stroke-linecap="round" stroke-linejoin="round" fill-opacity="0" class="primary" stroke="rgb(18,19,49)" stroke-opacity="1" stroke-width="42" d=" M-62.04282760620117,50.54557800292969 C-62.04282760620117,50.54557800292969 -108.4985122680664,108.18999481201172 -108.4985122680664,108.18999481201172 C-108.4985122680664,108.18999481201172 -165.64906311035156,136.27206420898438 -165.64906311035156,136.27206420898438"/></g></g><g class="primary design" transform="matrix(0.15643446147441864,0.9876883625984192,-0.9876883625984192,0.15643446147441864,246.175048828125,328.8869323730469)" opacity="1" style="display: block;"><g opacity="1" transform="matrix(1,0,0,1,0,0)"><path stroke-linecap="round" stroke-linejoin="round" fill-opacity="0" class="primary" stroke="rgb(18,19,49)" stroke-opacity="1" stroke-width="42" d=" M-47.0605354309082,49.16526412963867 C-47.0605354309082,49.16526412963867 8.17595100402832,102.3272476196289 8.17595100402832,102.3272476196289 C8.17595100402832,102.3272476196289 16.96832847595215,168.53924560546875 16.96832847595215,168.53924560546875"/></g></g></g></g></g></svg>